HIERARCHY
ROOT Hips
{
  OFFSET 196.326 95.9168 97.7182
  CHANNELS 6 Xposition Yposition Zposition Zrotation Xrotation Yrotation
  JOINT LeftUpLeg
  {
    OFFSET 8.64259 1.95398 -2.38835
    CHANNELS 3 Zrotation Xrotation Yrotation
    JOINT LeftLeg
    {
      OFFSET 43.7702 0 0
      CHANNELS 3 Zrotation Xrotation Yrotation
      JOINT LeftFoot
      {
        OFFSET 40.6238 0 0
        CHANNELS 3 Zrotation Xrotation Yrotation
        JOINT LeftToeBase
        {
          OFFSET 12.7242 0 0
          CHANNELS 3 Zrotation Xrotation Yrotation
          End Site
          {
            OFFSET 0 0 0
          }
        }
      }
    }
  }
  JOINT RightUpLeg
  {
    OFFSET -8.2249 1.95398 -2.59336
    CHANNELS 3 Zrotation Xrotation Yrotation
    JOINT RightLeg
    {
      OFFSET 43.5653 0 0
      CHANNELS 3 Zrotation Xrotation Yrotation
      JOINT RightFoot
      {
        OFFSET 40.6238 0 0
        CHANNELS 3 Zrotation Xrotation Yrotation
        JOINT RightToeBase
        {
          OFFSET 12.7242 0 0
          CHANNELS 3 Zrotation Xrotation Yrotation
          End Site
          {
            OFFSET 0 0 0
          }
        }
      }
    }
  }
  JOINT Spine
  {
    OFFSET 0.165834 0.87714 6.61349
    CHANNELS 3 Zrotation Xrotation Yrotation
    JOINT Spine1
    {
      OFFSET 7.38963 1.71661e-005 0
      CHANNELS 3 Zrotation Xrotation Yrotation
      JOINT Spine2
      {
        OFFSET 11.9445 1.14441e-005 0
        CHANNELS 3 Zrotation Xrotation Yrotation
        JOINT Spine3
        {
          OFFSET 14.7254 4.19617e-005 0
          CHANNELS 3 Zrotation Xrotation Yrotation
          JOINT Spine4
          {
            OFFSET 10.9679 0 0
            CHANNELS 3 Zrotation Xrotation Yrotation
            JOINT RightShoulder
            {
              OFFSET 2.46616 -1.6653 3.69651
              CHANNELS 3 Zrotation Xrotation Yrotation
              JOINT RightArm
              {
                OFFSET 13.0012 0 0
                CHANNELS 3 Zrotation Xrotation Yrotation
                JOINT RightForeArm
                {
                  OFFSET 28.7848 1.52588e-005 0
                  CHANNELS 3 Zrotation Xrotation Yrotation
                  JOINT RightHand
                  {
                    OFFSET 26.5688 1.52588e-005 0
                    CHANNELS 3 Zrotation Xrotation Yrotation
                    End Site
                    {
                      OFFSET 0 0 0
                    }
                  }
                }
              }
            }
            JOINT LeftShoulder
            {
              OFFSET 2.38034 -1.29275 -3.75231
              CHANNELS 3 Zrotation Xrotation Yrotation
              JOINT LeftArm
              {
                OFFSET 16.3182 6.10351e-005 0
                CHANNELS 3 Zrotation Xrotation Yrotation
                JOINT LeftForeArm
                {
                  OFFSET 27.0901 0 0
                  CHANNELS 3 Zrotation Xrotation Yrotation
                  JOINT LeftHand
                  {
                    OFFSET 24.5451 1.52588e-005 0
                    CHANNELS 3 Zrotation Xrotation Yrotation
                    End Site
                    {
                      OFFSET 0 0 0
                    }
                  }
                }
              }
            }
            JOINT Neck
            {
              OFFSET 5.0226 -0.0266342 0
              CHANNELS 3 Zrotation Xrotation Yrotation
              JOINT Head
              {
                OFFSET 6.69363 2.86102e-005 0
                CHANNELS 3 Zrotation Xrotation Yrotation
                End Site
                {
                  OFFSET 0 0 0
                }
              }
            }
          }
        }
      }
    }
  }
}
MOTION
Frames:	14
Frame Time:	0.0416667
320.291 88.2425 242.491 103.512 -39.2135 97.1512 -175.28 21.0687 91.1004 -33.3786 47.3984 -0.242394 39.4258 -13.5029 10.487 30.316 13.5079 144.217 169.703 24.8629 84.5042 -86.1457 -1.17164 -4.84903 80.7548 -10.8745 -4.87558 39.2031 0.599713 -1.39807 -6.72785 8.2029 -87.7931 10.798 -12.3815 5.53372 -0.82733 -12.1262 6.07886 -23.8322 -13.4628 1.49615 -3.81954 -13.4628 1.49614 64.2265 -7.87066 -177.037 53.8107 8.8389 17.2783 -5.21171 1.88964 -70.5399 -29.9567 -2.22402 3.15943 -78.3374 -35.1405 96.0904 -37.9212 36.6377 8.66987 -1.46293 45.5346 -28.4545 -36.0594 15.4619 -52.9182 -2.31076 26.7645 13.4569 6.34545 20.9956 -36.8439 
319.656 90.5245 240.769 102.439 -50.6907 95.9135 -175.566 17.1123 89.996 -22.9741 20.9663 2.00376 38.4945 -16.7491 -1.00266 29.3909 16.2631 137.752 177.766 29.5642 83.4439 -84.3841 11.1714 -6.25473 56.2885 -5.55392 -3.53652 42.0271 1.42651 11.3567 -4.9295 7.81242 -88.0372 11.4488 -8.89306 4.81222 -0.202109 -8.67294 5.20052 -22.9659 -9.92449 1.89611 -2.95331 -9.92448 1.89611 58.4948 -16.0414 -175.164 41.4762 3.46129 20.2171 -8.31107 2.55421 -80.8407 -28.84 -1.7259 1.7914 -89.1388 -38.956 77.5045 -42.0737 -1.34682 23.6689 21.3971 25.7177 -40.3398 -54.9157 26.3008 -35.6153 7.62016 22.2998 7.12593 -6.07725 20.2201 -33.564 
318.134 89.6676 238.483 101.822 -57.7723 99.3403 -175.251 17.4102 96.4964 -15.3765 -17.65 4.74195 12.5394 -18.6568 -38.4532 27.4651 19.8258 137.671 -174.738 22.5564 84.4122 -85.8797 4.93011 -8.47093 51.1109 -2.14422 -1.35744 51.4788 3.19519 12.9509 -3.20969 7.90424 -88.6027 11.155 -5.73961 3.33585 -0.508036 -5.58729 3.5856 -23.1377 -6.47592 1.451 -3.12507 -6.47591 1.45098 60.057 -20.1521 -168.26 38.3795 -3.73894 18.5326 -15.2471 -0.641429 -93.7074 -26.3011 -1.5155 1.95691 -91.4857 -37.7914 73.1998 -48.4215 -7.44027 31.7514 -8.98884 -14.5158 -56.2865 28.83 -0.42541 10.1672 17.5596 15.5132 -2.49538 -16.3506 17.4941 -21.8907 
314.447 90.9308 235.608 100.442 -57.6539 98.1787 -175.895 16.1225 97.669 -3.85116 -31.2117 7.41807 0.461033 -12.4572 -64.5186 38.1389 15.6147 113.781 -174.61 14.2148 84.0282 -79.0403 1.05009 -10.3258 56.8538 -0.760149 -0.333489 50.9814 4.36713 22.3965 -2.17815 8.20589 -88.9818 10.4986 -3.87138 2.36823 -1.16914 -3.7634 2.53641 -23.7448 -4.40385 1.09365 -3.7322 -4.40384 1.09364 67.1232 -20.3588 -156.881 41.1574 -9.80429 14.3143 -18.9767 7.2386 -100.166 -25.4715 -1.99862 4.49315 -85.3656 -34.8741 83.2651 -54.4735 -0.0264154 32.0498 -9.87981 -9.46866 -62.8862 42.973 1.93102 0.326227 25.7055 8.69908 -3.59746 -20.5186 10.9237 -10.7371 
308.717 94.0382 231.469 94.7837 -54.7275 94.8078 -177.143 23.4689 97.286 -7.30499 12.0766 4.07375 -22.5431 -40.302 -13.252 133.096 14.3292 -89.5043 -177.361 11.846 86.1684 -67.0555 -3.73421 -9.30169 57.1416 -0.228567 0.0119535 52.3665 4.9761 23.6571 -1.5761 8.28037 -89.7352 10.326 -3.01883 0.787642 -1.34181 -2.98124 0.919837 -23.9052 -3.11586 -0.15694 -3.89252 -3.11585 -0.156945 74.9549 -19.6931 -143.494 44.9403 -16.7941 10.6522 -21.0669 7.48246 -99.6467 -27.7661 -2.24896 4.86749 -81.2614 -35.8914 90.8164 -55.7087 1.97191 31.1338 -8.19052 -7.15034 -67.3918 42.2314 2.1431 1.07218 32.6277 5.0289 -0.0257241 -20.5303 5.1238 -2.87023 
302.03 94.209 226.521 90.4833 -51.9551 91.5333 -176.564 21.5606 102.113 16.8906 -76.9162 25.5899 -54.5314 -47.8504 -24.6005 -81.9069 -46.4139 -69.4528 -178.25 15.7046 88.4786 -62.4474 -5.10514 -7.59522 60.3899 -0.48997 -0.197271 58.2044 4.95661 15.4517 -0.877127 8.28439 -90.0698 10.306 -1.77931 0.0156315 -1.36372 -1.77691 0.093944 -23.9079 -1.70175 -0.520008 -3.89524 -1.70173 -0.520005 78.0617 -25.0342 -132.995 44.3124 -17.8074 10.547 -21.2997 6.47836 -94.3054 -28.9095 -2.24096 4.50388 -86.4309 -41.1377 82.6121 -50.68 -1.66072 27.8161 -9.12224 -7.87705 -69.4409 44.2318 2.97234 2.77145 31.8163 1.43521 3.32724 -12.5365 0.0339871 -0.86716 
293.716 93.6701 220.799 89.1671 -52.2133 88.5382 -177.181 28.105 100.449 35.3795 -84.7556 65.3337 -37.2658 -9.69227 -72.7189 -4.6953 -51.6814 16.0863 -178.679 22.538 89.8304 -61.8625 5.60431 -6.0532 64.4328 -2.6674 -1.45384 61.5124 6.06315 17.7666 0.0512048 7.99008 -90.2799 10.8933 -0.0276268 -0.557474 -0.777891 -0.0521247 -0.555732 -23.3114 0.141176 -0.540015 -3.29878 0.141183 -0.540024 80.0916 -32.4884 -124.171 40.9734 -16.3309 15.0118 -19.8657 -0.764469 -89.053 -28.3711 -2.13183 4.23209 -99.6221 -46.7297 63.3409 -43.6586 -5.81635 26.1854 -9.47448 -9.19407 -66.9436 45.737 2.05059 0.410625 20.6947 -2.18749 11.5494 -1.82611 -5.79662 -2.03582 
285.879 93.8423 215.014 91.0623 -51.8418 88.2138 -172.383 38.164 91.9595 -64.6454 -2.70762 0.839126 51.215 0.594788 0.0177488 -14.2987 -39.4833 -12.5156 179.521 26.1837 90.2195 -59.2855 11.1233 -4.4729 66.0951 -4.60959 -2.52095 49.1027 3.19469 16.4844 0.575937 7.68198 -90.2766 11.5127 1.01649 -0.655605 -0.158027 0.986633 -0.699722 -22.6961 1.16652 -0.31977 -2.6834 1.16651 -0.319785 80.7671 -41.7943 -118.263 35.6648 -14.1796 19.8653 -18.6311 -1.33647 -78.1358 -27.4496 -2.06465 4.28075 -113.125 -47.611 44.3262 -36.5677 -6.03966 26.8667 -11.0341 -11.2506 -64.6662 45.4012 1.65754 -0.420402 6.66462 -6.08972 12.854 7.00459 -8.8958 -2.59521 
279.708 92.3304 210.069 89.0902 -50.7725 87.0225 -169.628 38.546 89.4961 -80.8617 14.0846 0.109499 64.3907 14.2652 18.3633 -63.6472 -56.0188 -43.7517 -179.037 31.7468 91.2416 -57.5185 14.2529 -4.3722 60.865 -3.62398 -2.0636 57.0686 5.78895 21.0991 0.757311 7.40757 -90.4729 12.0645 1.28224 -1.08399 0.393737 1.23327 -1.13938 -22.1449 1.54872 -0.648467 -2.13227 1.54872 -0.648483 82.965 -47.5179 -112.38 30.5119 -13.2497 22.0533 -16.2087 -6.37349 -68.8091 -28.7589 -2.41995 5.38415 -124.184 -46.8264 29.1673 -28.3217 -5.56083 25.1469 -10.2163 -11.5948 -63.487 45.0348 2.4496 1.41156 1.73404 -6.90025 14.0878 7.79208 -9.60602 -4.67635 
274.342 91.244 204.924 89.1892 -51.7381 88.8677 -169.334 32.5688 91.0348 -86.6661 17.8503 0.124732 68.8577 19.188 16.8336 -134.86 -62.3775 -89.6345 -177.546 35.1605 94.1422 -55.6308 13.3909 -4.59686 66.867 -3.89625 -2.0771 40.5089 1.36275 16.7655 0.553474 7.5851 -90.6257 11.7077 0.807279 -1.33084 0.0362934 0.74794 -1.36508 -22.4974 1.16993 -1.02673 -2.48479 1.16991 -1.02674 84.6279 -47.3025 -109.889 30.4725 -15.3044 22.5964 -12.2609 -9.12595 -60.7978 -31.8899 -2.31813 4.00723 -124.795 -46.3739 28.0936 -22.926 -4.60426 21.8846 -11.5742 -11.6382 -64.6057 46.3377 1.44854 -0.974275 6.01596 -3.81524 12.577 3.83363 -6.46278 -3.20256 
268.936 92.0478 199.315 88.1324 -54.1043 87.3399 -168.268 23.7198 89.4125 -81.1374 21.4723 -0.986007 74.6378 24.6443 16.4771 -155.899 -52.3443 -101.971 -176.222 38.0757 92.9784 -49.2954 9.53467 -4.36985 61.292 -1.83044 -0.98066 35.4928 0.354642 16.154 0.303169 7.67714 -90.3789 11.5197 0.425946 -0.799115 -0.15151 0.390375 -0.817081 -22.6855 0.646416 -0.634164 -2.67289 0.646416 -0.634169 84.9419 -45.6825 -109.959 33.6457 -16.6063 27.4962 -11.829 -7.68339 -63.2138 -31.0437 -2.07827 3.25948 -121.01 -45.1954 32.2503 -20.6903 -5.10558 21.5362 -14.7618 -11.6762 -69.8246 45.2954 -0.586193 -5.4926 7.28188 -0.639313 9.82534 3.00358 -2.65028 -0.272125 
263.407 95.3228 192.834 85.075 -54.5094 85.7717 -172.088 17.654 87.1406 -68.3988 18.7228 -0.57527 78.1082 23.1181 11.197 -147.574 -46.2103 -97.4222 -176.971 34.4086 91.5599 -27.8595 4.64168 -2.08113 49.1739 1.63205 1.68005 25.7383 -1.86155 18.145 -0.11372 7.80858 -90.1703 11.2563 -0.305523 -0.307961 -0.414657 -0.318786 -0.294219 -22.9497 -0.198852 -0.385546 -2.93701 -0.198855 -0.38555 86.6127 -44.8918 -107.559 36.5536 -18.7066 28.7067 -11.763 -6.15457 -66.562 -30.158 -2.10011 3.48761 -112.22 -43.7623 43.4506 -21.4611 -3.44758 19.5264 -15.1852 -9.91279 -75.1685 43.4782 -1.25757 -7.1312 11.3801 2.44217 4.89618 -0.342555 1.42082 3.52019 
257.454 97.9836 185.873 79.5689 -56.7733 81.8575 -173.971 13.4072 84.9186 -50.6228 23.4874 -1.25231 69.1556 22.1237 24.5789 -95.8336 -21.9611 -83.3535 -176.373 32.6028 90.9082 -11.7831 -9.67542 -1.91215 42.8118 4.84641 4.76979 25.5973 -1.37693 12.8715 -0.0889078 7.7373 -89.9285 11.3994 -0.143536 0.15678 -0.271573 -0.136481 0.162947 -22.8067 -0.184015 0.106397 -2.7941 -0.184025 0.106393 88.0598 -44.0707 -105.472 39.0409 -20.3139 28.8494 -10.653 -4.85162 -66.8608 -30.6905 -1.47532 0.886346 -104.046 -40.5877 53.8555 -24.6033 0.409987 18.1234 -14.6968 -8.55022 -78.4872 42.4668 -1.71795 -8.31328 15.0159 3.65839 1.44736 -2.4626 3.31618 3.99891 
251.328 98.3827 178.901 75.2919 -58.2411 80.6937 -175.161 13.0619 85.5589 -39.004 21.9026 -0.469291 63.5189 17.6211 27.4958 23.1494 3.15132 -56.6564 -174.168 36.4233 92.1064 -25.9969 -4.85646 -4.15383 54.6441 1.28054 1.21984 40.9378 1.27989 11.7476 0.00745192 7.74401 -90.0303 11.3862 0.000808867 -0.0610538 -0.284779 -0.00189291 -0.0610486 -22.82 0.019103 -0.0580023 -2.80732 0.0191108 -0.0580035 87.7052 -44.1695 -106.02 38.4645 -18.0444 27.3472 -13.3226 -3.41399 -68.5677 -27.7102 -0.984238 -0.529191 -98.7419 -38.4524 61.2745 -27.6031 4.09956 16.4549 -13.0657 -7.10891 -79.8823 44.8815 -1.74547 -8.15725 19.9692 5.13546 0.895627 -6.14437 4.69148 3.19296 
